<?xml version="1.0" standalone="no"?>
<!DOCTYPE svg PUBLIC "-//W3C//DTD SVG 20010904//EN"
 "http://www.w3.org/TR/2001/REC-SVG-20010904/DTD/svg10.dtd">
<svg version="1.0" xmlns="http://www.w3.org/2000/svg"
 width="1200.000000pt" height="1200.000000pt" viewBox="0 0 1200.000000 1200.000000"
 preserveAspectRatio="xMidYMid meet">

<g transform="translate(0.000000,1200.000000) scale(0.100000,-0.100000)"
fill="#000000" stroke="none">
<path d="M5490 10270 c-294 -165 -777 -433 -1072 -597 l-537 -298 -1 -771 0
-770 -77 -34 c-71 -30 -1074 -581 -1098 -602 -11 -11 85 30 297 126 81 36 152
66 157 66 8 0 240 -356 456 -702 44 -70 83 -127 88 -128 6 0 1066 586 1075
594 1 2 -69 115 -157 252 l-160 248 27 16 c15 9 127 72 250 139 l222 123 0
362 1 361 266 118 c213 94 269 115 279 105 6 -7 68 -101 137 -208 135 -212
388 -603 393 -609 3 -3 145 75 740 406 172 95 319 176 328 179 14 5 16 -29 18
-356 l3 -362 205 -115 c113 -63 232 -129 265 -147 187 -101 305 -169 305 -175
0 -3 -88 -55 -195 -115 -189 -105 -231 -131 -162 -103 185 79 451 203 532 248
55 31 183 103 285 161 102 57 269 151 372 208 103 57 186 105 184 107 -7 8
-446 -197 -570 -267 -80 -44 -147 -80 -150 -80 -3 0 -6 388 -6 863 l0 862
-263 146 c-1427 795 -1873 1042 -1886 1045 -9 2 -257 -131 -551 -296z"/>
<path d="M6725 6516 c-368 -206 -675 -379 -682 -385 -6 -6 -13 -6 -15 -1 -2 5
-214 127 -473 271 -258 144 -537 299 -620 345 l-150 84 -3 -178 c-1 -97 1
-178 5 -179 5 -2 284 -157 622 -346 338 -188 622 -342 630 -341 9 1 320 170
691 377 l675 376 3 176 c1 96 -1 175 -5 175 -5 -1 -309 -169 -678 -374z"/>
<path d="M10285 4026 c-102 -46 -124 -191 -40 -265 76 -66 186 -52 249 33 16
21 21 42 21 86 -1 64 -17 96 -68 134 -33 25 -121 32 -162 12z m117 -93 c23
-20 24 -80 1 -105 -20 -22 -61 -23 -91 -2 -27 19 -30 78 -5 106 20 22 70 23
95 1z"/>
<path d="M9658 3753 l-458 -3 0 -70 0 -70 450 0 449 0 -13 -38 c-24 -66 -107
-224 -159 -302 -109 -161 -293 -326 -461 -411 -47 -24 -86 -47 -86 -51 0 -9
90 -112 102 -116 15 -6 137 68 237 144 121 90 231 206 312 327 61 91 162 282
200 379 11 28 29 62 39 76 30 37 25 56 -26 101 -41 35 -52 41 -88 39 -23 -2
-247 -4 -498 -5z"/>
<path d="M1784 3740 c-91 -19 -165 -72 -211 -150 -66 -111 -81 -342 -33 -510
18 -65 73 -143 123 -177 65 -44 116 -57 212 -57 88 0 160 26 221 77 152 129
167 557 24 719 -70 80 -218 123 -336 98z m146 -159 c63 -33 100 -142 100 -291
0 -83 -23 -192 -50 -235 -45 -73 -144 -84 -206 -24 -43 42 -63 105 -70 224
-14 210 49 345 161 345 17 0 46 -8 65 -19z"/>
<path d="M5020 3740 c-123 -21 -211 -99 -235 -207 l-7 -33 54 0 c29 0 69 -3
88 -6 33 -5 36 -3 51 35 17 41 54 67 99 71 69 6 92 0 126 -34 28 -28 34 -41
34 -77 -1 -77 -57 -119 -160 -119 l-60 0 0 -75 0 -75 68 0 c75 0 143 -25 161
-58 16 -31 13 -104 -5 -131 -23 -32 -73 -51 -136 -51 -69 0 -114 27 -136 81
-17 40 -17 41 -61 35 -24 -3 -61 -6 -83 -6 -47 0 -55 -16 -39 -72 19 -63 102
-139 176 -163 74 -24 227 -25 298 -2 138 44 212 167 177 292 -21 74 -115 145
-192 145 -33 0 -18 16 26 28 53 14 114 64 132 109 20 47 18 137 -5 181 -54
106 -206 160 -371 132z"/>
<path d="M2360 3296 l0 -446 95 0 95 0 0 154 0 153 113 6 c148 7 207 27 274
92 41 40 55 62 68 109 34 117 5 230 -75 298 -69 60 -118 70 -357 76 l-213 4 0
-446z m393 280 c50 -21 70 -50 74 -109 8 -111 -46 -157 -189 -157 l-88 0 0
140 0 140 85 0 c50 0 99 -6 118 -14z"/>
<path d="M3170 3295 l0 -445 330 0 330 0 0 75 0 75 -235 0 -235 0 0 115 0 115
203 2 202 3 0 70 0 70 -202 3 -203 2 0 105 0 105 225 0 225 0 0 75 0 75 -320
0 -320 0 0 -445z"/>
<path d="M3980 3295 l0 -445 85 0 85 0 0 199 c0 109 -5 256 -10 326 -6 70 -9
129 -7 131 2 2 59 -145 128 -326 l124 -330 113 0 112 0 0 445 0 445 -85 0 -86
0 2 -222 c1 -123 6 -274 10 -337 5 -63 8 -116 6 -117 -1 -2 -33 79 -71 179
-38 100 -96 253 -129 340 l-59 157 -109 0 -109 0 0 -445z"/>
<path d="M5600 3294 l0 -446 188 4 c161 4 195 8 243 27 111 43 192 146 219
278 19 89 8 285 -19 354 -45 118 -154 199 -296 219 -38 5 -130 10 -202 10
l-133 0 0 -446z m346 277 c97 -44 128 -120 123 -295 -4 -101 -7 -118 -34 -171
-39 -76 -89 -105 -182 -105 l-63 0 0 295 0 295 58 0 c34 0 74 -8 98 -19z"/>
<path d="M6938 3723 l-508 -3 0 -75 0 -75 465 0 c256 0 465 -3 465 -6 0 -3
-29 -43 -64 -88 -64 -82 -214 -232 -273 -274 l-32 -23 -43 39 c-58 53 -167
132 -183 132 -6 0 -31 -22 -53 -49 l-42 -49 65 -46 c94 -68 229 -199 305 -298
l67 -86 62 49 c33 28 61 54 61 59 0 5 -26 39 -58 76 l-59 68 111 110 c61 61
153 161 205 221 51 61 113 131 137 157 24 26 44 51 44 56 0 25 -129 116 -155
110 -5 -2 -238 -4 -517 -5z"/>
<path d="M8280 3567 c-30 -11 -56 -21 -58 -22 -1 -1 18 -45 43 -96 25 -52 51
-111 57 -131 13 -44 18 -45 93 -17 63 23 62 17 18 123 -22 53 -88 168 -95 165
-2 -1 -28 -10 -58 -22z"/>
<path d="M8725 3543 c-47 -229 -118 -372 -259 -521 -84 -88 -168 -153 -260
-199 l-69 -35 77 -45 77 -44 84 56 c194 129 340 323 440 586 20 52 45 104 57
116 l20 21 -21 21 c-21 21 -79 53 -118 65 -19 6 -23 3 -28 -21z"/>
<path d="M7990 3513 c-19 -8 -45 -19 -58 -24 -23 -9 -22 -10 49 -146 40 -76
74 -140 75 -142 2 -2 32 9 68 25 l63 29 -34 70 c-40 81 -115 205 -123 204 -3
0 -21 -8 -40 -16z"/>
<path d="M5193 2229 c-8 -11 -2 -24 26 -57 32 -37 39 -41 50 -28 11 13 6 22
-26 57 -31 33 -41 38 -50 28z"/>
<path d="M7835 2230 c-27 -4 -110 -11 -183 -15 -89 -5 -131 -12 -129 -19 3 -7
35 -10 95 -7 l92 3 0 -51 0 -51 -85 0 c-69 0 -85 -3 -85 -15 0 -12 16 -15 85
-15 l85 0 0 -45 0 -45 -115 0 c-96 0 -115 -3 -115 -15 0 -12 19 -15 115 -15
l116 0 -3 -82 c-3 -83 -3 -83 -31 -86 -20 -3 -27 -8 -25 -20 5 -24 58 -17 81
10 13 15 17 38 17 99 l0 79 110 0 c91 0 110 3 110 15 0 12 -19 15 -110 15
l-110 0 0 45 0 45 85 0 c69 0 85 3 85 15 0 12 -16 15 -86 15 l-85 0 3 53 3 52
76 3 c71 3 77 4 72 22 -3 11 -8 19 -12 19 -3 -1 -28 -5 -56 -9z"/>
<path d="M6610 2165 l0 -65 -70 0 c-40 0 -70 -4 -70 -10 0 -6 29 -10 66 -10
l66 0 -37 -67 c-20 -38 -54 -89 -76 -115 -41 -49 -48 -68 -25 -68 17 0 57 50
109 135 l38 60 -3 -125 -3 -125 -27 -3 c-36 -4 -26 -32 11 -32 48 0 51 12 51
182 l0 158 45 0 c25 0 45 5 45 10 0 6 -20 10 -45 10 l-45 0 0 65 c0 51 -3 65
-15 65 -12 0 -15 -14 -15 -65z"/>
<path d="M3850 2211 c0 -5 -21 -37 -46 -71 -25 -34 -43 -64 -41 -67 9 -8 42
18 74 61 42 54 48 72 29 79 -9 4 -16 3 -16 -2z"/>
<path d="M3982 2178 c3 -42 2 -43 -29 -46 -18 -2 -33 -8 -33 -13 0 -6 15 -9
33 -7 31 3 32 1 35 -34 l3 -38 -40 0 c-23 0 -41 -4 -41 -10 0 -5 16 -10 35
-10 34 0 35 -1 35 -40 0 -39 -1 -40 -35 -40 -19 0 -35 -4 -35 -10 0 -5 16 -10
35 -10 35 0 35 0 35 -45 l0 -45 -40 0 c-29 0 -40 -4 -40 -15 0 -19 6 -19 103
6 91 23 115 35 50 25 l-43 -6 0 40 c0 39 1 40 35 40 19 0 35 5 35 10 0 6 -16
10 -35 10 -34 0 -35 1 -35 40 l0 40 40 0 c22 0 40 5 40 10 0 6 -18 10 -41 10
l-40 0 3 38 c3 35 4 37 36 34 17 -2 32 1 32 7 0 5 -15 11 -32 13 -32 3 -33 5
-33 46 0 34 -3 42 -18 42 -15 0 -18 -7 -15 -42z"/>
<path d="M5760 2163 c-16 -39 -42 -75 -78 -110 -49 -47 -59 -73 -29 -73 6 0
24 12 39 27 l28 27 0 -147 c0 -140 1 -147 20 -147 19 0 20 7 20 173 l0 173 31
57 c17 31 28 61 24 67 -14 23 -33 7 -55 -47z"/>
<path d="M5890 2091 l0 -128 -61 -33 c-54 -29 -59 -34 -46 -47 13 -13 20 -12
60 11 l45 27 4 -69 c5 -97 11 -102 123 -102 l93 0 7 43 c3 23 9 50 11 60 4 12
0 17 -15 17 -17 0 -21 -6 -21 -34 0 -48 -22 -66 -80 -66 -79 0 -80 1 -80 94
l0 82 81 73 c73 67 79 75 65 89 -14 14 -21 10 -72 -46 -30 -34 -60 -62 -65
-62 -5 0 -9 50 -9 110 0 103 -1 110 -20 110 -19 0 -20 -7 -20 -129z"/>
<path d="M8180 2185 c0 -34 -1 -35 -40 -35 -22 0 -40 -4 -40 -10 0 -5 18 -10
41 -10 36 0 40 -2 37 -22 -2 -18 -11 -24 -35 -26 l-33 -3 0 -80 0 -79 35 0
c32 0 35 -2 35 -29 0 -28 -3 -30 -42 -34 l-43 -4 43 -1 42 -2 0 -60 c0 -47 3
-60 15 -60 12 0 15 13 15 59 l0 60 48 4 47 3 -47 2 c-46 2 -48 3 -48 32 0 28
3 30 35 30 l35 0 0 80 0 80 -35 0 c-31 0 -35 3 -35 25 0 23 4 25 45 25 25 0
45 5 45 10 0 6 -20 10 -45 10 -45 0 -45 0 -45 35 0 24 -5 35 -15 35 -10 0 -15
-11 -15 -35z m0 -145 c0 -25 -4 -30 -25 -30 -20 0 -25 5 -25 23 0 28 7 37 32
37 13 0 18 -8 18 -30z m78 -2 c3 -24 0 -28 -22 -28 -22 0 -26 4 -26 31 0 26 3
30 23 27 16 -2 23 -11 25 -30z m-78 -68 c0 -25 -4 -30 -25 -30 -20 0 -25 5
-25 23 0 28 7 37 32 37 13 0 18 -8 18 -30z m78 -2 c3 -24 0 -28 -22 -28 -22 0
-26 4 -26 31 0 26 3 30 23 27 16 -2 23 -11 25 -30z"/>
<path d="M10300 2163 c-16 -39 -42 -75 -78 -110 -49 -47 -59 -73 -29 -73 6 0
24 12 39 27 l28 27 0 -147 c0 -140 1 -147 20 -147 19 0 20 7 20 173 l0 173 31
57 c17 31 28 61 24 67 -14 23 -33 7 -55 -47z"/>
<path d="M10430 2091 l0 -128 -61 -33 c-54 -29 -59 -34 -46 -47 13 -13 20 -12
60 11 l45 27 4 -69 c5 -97 11 -102 123 -102 l93 0 7 43 c3 23 9 50 11 60 4 12
0 17 -15 17 -17 0 -21 -6 -21 -34 0 -48 -22 -66 -80 -66 -79 0 -80 1 -80 94
l0 82 81 73 c73 67 79 75 65 89 -14 14 -21 10 -72 -46 -30 -34 -60 -62 -65
-62 -5 0 -9 50 -9 110 0 103 -1 110 -20 110 -19 0 -20 -7 -20 -129z"/>
<path d="M6260 2030 c0 -153 2 -180 15 -180 8 0 15 -2 15 -5 0 -11 -32 -70
-47 -86 -12 -14 -12 -17 1 -22 9 -4 25 6 40 23 35 42 42 69 20 84 -26 20 -8
36 42 36 37 0 44 -3 44 -19 0 -11 -6 -21 -12 -24 -10 -3 -6 -16 11 -48 13 -24
25 -45 26 -47 1 -1 10 0 19 4 15 6 14 11 -10 52 -18 30 -23 47 -16 50 9 3 12
56 12 183 l0 179 -80 0 -80 0 0 -180z m130 114 l0 -45 -47 3 -48 3 -3 43 -3
42 50 0 51 0 0 -46z m0 -99 l0 -45 -50 0 -50 0 0 38 c0 21 3 42 7 45 3 4 26 7
50 7 l43 0 0 -45z m0 -110 l0 -45 -50 0 -50 0 0 45 0 45 50 0 50 0 0 -45z"/>
<path d="M1424 2145 l-6 -45 -49 0 c-37 0 -49 -4 -49 -15 0 -11 12 -15 45 -15
l45 0 0 -48 c0 -41 -4 -50 -23 -59 -42 -19 -90 -67 -108 -108 -24 -52 -24 -70
1 -95 26 -26 74 -26 118 2 32 20 35 20 44 4 14 -25 42 -1 28 24 -7 14 1 33 35
86 25 37 48 76 51 87 13 41 107 -16 119 -73 13 -59 -56 -150 -113 -150 -24 0
-25 -1 -10 -16 23 -24 64 -11 109 35 40 39 56 91 45 138 -10 37 -68 92 -106
99 -20 5 -29 11 -26 20 9 23 -16 28 -33 6 -9 -12 -35 -25 -58 -30 l-43 -10 0
37 c0 50 8 57 68 65 65 8 82 15 82 31 0 10 -12 10 -57 -1 -82 -19 -82 -19 -73
20 4 18 10 39 14 45 5 7 -2 11 -18 11 -22 0 -26 -5 -32 -45z m96 -177 c0 -7
-14 -37 -31 -67 -36 -62 -52 -58 -47 15 3 51 5 53 71 63 4 0 7 -5 7 -11z
m-107 -90 c5 -58 3 -65 -20 -86 -34 -31 -87 -27 -91 6 -5 36 17 80 57 112 19
17 38 30 42 30 4 0 9 -28 12 -62z"/>
<path d="M2020 2152 c-5 -20 -10 -43 -10 -49 0 -9 -17 -13 -50 -13 -38 0 -50
-4 -50 -15 0 -11 11 -15 41 -15 37 0 40 -2 33 -22 -11 -39 -73 -156 -85 -164
-11 -6 6 -23 24 -24 7 0 64 116 95 192 9 22 20 28 56 33 30 5 46 12 46 21 0
11 -9 13 -42 8 -37 -6 -41 -5 -35 10 17 45 18 63 3 69 -11 5 -18 -4 -26 -31z"/>
<path d="M2635 2124 l-7 -64 -54 0 c-41 0 -54 -4 -54 -15 0 -11 12 -15 50 -15
28 0 50 -1 50 -3 0 -16 -64 -226 -76 -249 -13 -25 -14 -32 -2 -39 7 -5 16 -9
19 -9 6 0 56 164 80 262 10 43 13 47 55 57 28 7 44 17 44 27 0 11 -6 14 -20
10 -11 -3 -30 -9 -41 -12 -23 -7 -23 0 -4 78 5 20 2 26 -13 30 -18 5 -21 -1
-27 -58z"/>
<path d="M7037 2148 c-14 -43 -14 -43 -61 -41 -34 1 -46 -3 -46 -13 0 -10 12
-14 40 -14 22 0 40 -2 40 -5 0 -11 -43 -91 -71 -132 -33 -48 -35 -53 -14 -53
8 0 31 18 51 39 60 67 132 76 150 19 5 -16 2 -25 -11 -33 -88 -52 -121 -90
-111 -129 10 -42 49 -59 141 -64 69 -4 83 -2 88 12 6 14 -5 16 -82 16 -72 0
-91 3 -104 18 -28 31 -21 59 25 92 56 41 72 40 65 -5 -5 -30 -3 -35 13 -35 15
0 19 9 22 47 l3 48 65 23 c76 27 76 27 60 46 -10 13 -20 11 -73 -16 -45 -22
-62 -27 -66 -17 -7 23 -49 59 -68 59 -10 0 -34 -4 -52 -10 -19 -5 -36 -8 -39
-6 -2 2 6 22 17 44 21 41 23 42 114 58 22 4 36 11 34 18 -4 12 -16 12 -73 1
-35 -6 -36 -5 -30 17 12 38 12 51 0 55 -7 2 -19 -15 -27 -39z"/>
<path d="M8330 2180 c0 -5 8 -10 18 -10 11 -1 26 -21 45 -62 l28 -62 -23 -18
c-13 -10 -40 -26 -60 -35 -39 -17 -46 -27 -28 -38 11 -7 61 17 106 51 29 21
33 22 45 8 15 -19 83 -54 103 -54 7 0 16 7 20 15 3 9 0 15 -10 15 -18 0 -90
36 -99 50 -3 5 5 29 19 52 14 24 29 55 35 71 l11 27 -105 0 c-63 0 -105 -4
-105 -10z m170 -13 c0 -21 -53 -96 -63 -90 -13 8 -47 86 -41 95 9 14 104 9
104 -5z"/>
<path d="M4100 2150 c0 -6 30 -10 70 -10 40 0 70 4 70 10 0 6 -30 10 -70 10
-40 0 -70 -4 -70 -10z"/>
<path d="M9443 2145 c-17 -7 -39 -27 -47 -43 -14 -28 -14 -31 1 -37 11 -4 22
1 30 12 26 38 35 43 72 43 24 0 44 -7 54 -18 38 -42 4 -102 -58 -102 -28 0
-35 -4 -35 -20 0 -16 7 -20 34 -20 42 0 86 -33 86 -66 0 -76 -137 -89 -161
-15 -5 15 -39 3 -39 -14 0 -24 51 -63 90 -70 138 -23 211 132 85 180 -20 7
-20 7 1 15 28 11 54 48 54 78 0 36 -19 62 -55 78 -42 17 -71 17 -112 -1z"/>
<path d="M8795 2138 c-13 -39 -26 -150 -26 -223 0 -109 14 -165 42 -165 15 0
19 5 15 15 -3 9 3 38 13 65 20 53 12 71 -9 19 -20 -48 -31 -20 -31 78 0 59 7
110 19 151 17 52 17 62 5 66 -21 8 -23 8 -28 -6z"/>
<path d="M9798 2144 c-2 -5 -4 -83 -4 -174 l1 -165 70 1 c123 1 169 49 169
174 0 77 -20 122 -65 145 -35 18 -164 32 -171 19z m159 -58 c24 -21 28 -32 31
-93 6 -109 -24 -153 -107 -153 l-41 0 0 135 0 135 44 0 c33 0 52 -6 73 -24z"/>
<path d="M3335 2133 c-56 -12 -90 -28 -121 -56 -90 -78 -106 -210 -33 -271 38
-33 50 -32 89 0 36 31 70 93 116 214 32 83 33 85 65 83 63 -3 129 -77 129
-145 0 -21 -6 -53 -14 -72 -14 -34 -81 -96 -103 -96 -18 0 -16 -17 3 -24 25
-10 100 49 123 97 25 51 28 125 7 166 -22 41 -80 88 -123 100 -38 11 -100 13
-138 4z m45 -40 c0 -28 -65 -177 -97 -225 -37 -56 -77 -60 -106 -11 -40 69 12
181 104 227 62 31 99 34 99 9z"/>
<path d="M4585 2133 c-56 -12 -90 -28 -121 -56 -90 -78 -106 -210 -33 -271 38
-33 50 -32 89 0 36 31 70 93 116 214 32 83 33 85 65 83 63 -3 129 -77 129
-145 0 -21 -6 -53 -14 -72 -14 -34 -81 -96 -103 -96 -18 0 -16 -17 3 -24 25
-10 100 49 123 97 25 51 28 125 7 166 -22 41 -80 88 -123 100 -38 11 -100 13
-138 4z m45 -40 c0 -28 -65 -177 -97 -225 -37 -56 -77 -60 -106 -11 -40 69 12
181 104 227 62 31 99 34 99 9z"/>
<path d="M5010 2105 c0 -12 13 -15 58 -15 l58 0 18 -60 c10 -32 31 -80 47
-105 16 -25 29 -50 29 -54 0 -17 -98 -71 -149 -84 -37 -9 -51 -16 -51 -29 0
-11 8 -18 20 -18 34 0 122 38 161 70 21 16 40 30 43 30 3 0 30 -17 60 -39 55
-38 138 -67 157 -56 20 13 9 35 -18 35 -31 0 -114 38 -152 68 l-24 19 21 31
c28 39 57 107 66 155 l7 37 59 0 c47 0 60 3 60 15 0 13 -33 15 -235 15 -202 0
-235 -2 -235 -15z m305 -52 c-9 -54 -56 -154 -69 -150 -13 3 -72 120 -82 160
l-6 27 82 0 82 0 -7 -37z"/>
<path d="M8988 2113 c-22 -3 -38 -10 -38 -17 0 -9 27 -12 105 -12 71 1 105 5
105 12 0 22 -65 28 -172 17z"/>
<path d="M2248 2094 c-4 -3 12 -22 33 -41 31 -28 42 -33 52 -24 9 10 4 19 -23
41 -35 29 -51 35 -62 24z"/>
<path d="M3841 2054 c-13 -24 -39 -61 -58 -83 -41 -49 -35 -76 8 -35 l29 28 0
-117 c0 -95 3 -117 14 -117 12 0 14 23 12 133 -3 124 -2 135 20 174 28 48 28
49 11 56 -8 3 -22 -12 -36 -39z"/>
<path d="M727 2055 c-22 -7 -50 -23 -63 -36 -23 -21 -23 -24 -7 -41 16 -18 17
-18 37 1 58 52 94 51 175 -3 62 -42 124 -48 181 -18 47 26 59 47 38 68 -15 15
-18 15 -44 -10 -42 -38 -93 -35 -158 8 -61 41 -107 50 -159 31z"/>
<path d="M10887 2055 c-22 -7 -50 -23 -63 -36 -23 -21 -23 -24 -7 -41 16 -18
17 -18 37 1 58 52 94 51 175 -3 62 -42 124 -48 181 -18 47 26 59 47 38 68 -15
15 -18 15 -44 -10 -42 -38 -93 -35 -158 8 -61 41 -107 50 -159 31z"/>
<path d="M4100 2040 c0 -5 14 -10 30 -10 l31 0 -3 -127 -3 -128 -27 -3 c-34
-4 -27 -32 7 -32 48 0 55 21 55 161 l0 129 30 0 c17 0 30 5 30 10 0 6 -32 10
-75 10 -43 0 -75 -4 -75 -10z"/>
<path d="M2760 2005 c0 -12 15 -15 74 -15 41 0 81 -3 90 -6 12 -4 16 0 16 15
0 20 -5 21 -90 21 -73 0 -90 -3 -90 -15z"/>
<path d="M2172 1924 l3 -86 -54 -1 c-42 -2 -57 -7 -72 -26 -25 -31 -24 -47 6
-76 45 -46 155 -20 155 36 0 24 5 24 47 -2 26 -17 37 -19 46 -10 15 15 -23 47
-65 56 -24 6 -27 11 -33 70 -4 34 -4 77 0 94 6 27 4 31 -15 31 -20 0 -21 -4
-18 -86z m8 -132 c0 -46 -67 -73 -105 -42 -33 28 -1 60 61 60 36 0 44 -3 44
-18z"/>
<path d="M8430 1925 c0 -35 0 -35 -45 -35 -25 0 -45 -4 -45 -10 0 -5 20 -10
45 -10 l45 0 0 -50 0 -49 -62 -4 c-35 -2 0 -3 77 -3 87 -1 117 2 80 5 l-60 6
-3 48 -3 47 50 0 c28 0 51 5 51 10 0 6 -22 10 -50 10 l-50 0 0 35 c0 24 -5 35
-15 35 -10 0 -15 -11 -15 -35z"/>
<path d="M8930 1835 c0 -29 76 -55 166 -55 72 0 82 2 87 19 4 17 -1 18 -77 14
-78 -5 -99 -1 -168 35 -5 2 -8 -4 -8 -13z"/>
<path d="M2725 1790 c-11 -18 67 -43 148 -48 66 -4 77 -2 77 12 0 13 -12 16
-65 16 -36 0 -82 7 -102 15 -42 18 -50 18 -58 5z"/>
</g>
</svg>
